{
	"asset": {
		"generator": "Tilt Brush 21.2.437b055c3",
		"version": "1.1",
		"copyright": "Unknown."
	},
	"buffers": {
		"sketch": {
			"byteLength": 1144404,
			"type": "arraybuffer",
			"uri": "sketch.bin"
		}
	},
	"accessors": {
		"accessor_position_Embers_02ffb866-7fb2-4d15-b761-1012cefb1360_0_i0": {
			"bufferView": "vec3BufferView",
			"byteOffset": 0,
			"byteStride": 12,
			"componentType": 5126,
			"count": 13944,
			"max": [ 0.9542373, 1.777277, 0.2297584 ],
			"min": [ 0.6315803, 1.05421, -0.08804474 ],
			"type": "VEC3"
		 },
		"accessor_normal_Embers_02ffb866-7fb2-4d15-b761-1012cefb1360_0_i0": {
			"bufferView": "vec3BufferView",
			"byteOffset": 167328,
			"byteStride": 12,
			"componentType": 5126,
			"count": 13944,
			"max": [ 0.9527571, 1.775592, 0.2281113 ],
			"min": [ 0.6331236, 1.055822, -0.08657758 ],
			"type": "VEC3"
		 },
		"accessor_color_Embers_02ffb866-7fb2-4d15-b761-1012cefb1360_0_i0": {
			"bufferView": "vec4BufferView",
			"byteOffset": 0,
			"byteStride": 16,
			"componentType": 5126,
			"count": 13944,
			"max": [ 0.2, 0.2, 0.9019608, 0.9960784 ],
			"min": [ 0.2, 0.2, 0.9019608, 0 ],
			"type": "VEC4"
		 },
		"accessor_vertexId_Embers_02ffb866-7fb2-4d15-b761-1012cefb1360_0_i0": {
			"bufferView": "floatBufferView",
			"byteOffset": 0,
			"byteStride": 0,
			"componentType": 5126,
			"count": 13944,
			"max": [ 13943 ],
			"min": [ 0 ],
			"type": "SCALAR"
		 },
		"accessor_uv0_Embers_02ffb866-7fb2-4d15-b761-1012cefb1360_0_i0": {
			"bufferView": "vec4BufferView",
			"byteOffset": 223104,
			"byteStride": 16,
			"componentType": 5126,
			"count": 13944,
			"max": [ 1, 1, 0, 246.7809 ],
			"min": [ 0, 0, 0, 204.5087 ],
			"type": "VEC4"
		 },
		"accessor_uv1_Embers_02ffb866-7fb2-4d15-b761-1012cefb1360_0_i0": {
			"bufferView": "vec4BufferView",
			"byteOffset": 446208,
			"byteStride": 16,
			"componentType": 5126,
			"count": 13944,
			"max": [ 0.9527571, 1.775592, 0.2281113, 13943 ],
			"min": [ 0.6331236, 1.055822, -0.08657758, 0 ],
			"type": "VEC4"
		 },
		"accessor_indices_0_Embers_02ffb866-7fb2-4d15-b761-1012cefb1360_0_i0": {
			"bufferView": "ushortBufferView",
			"byteOffset": 0,
			"byteStride": 0,
			"componentType": 5123,
			"count": 20916,
			"max": [ 13943 ],
			"min": [ 0 ],
			"type": "SCALAR"
		 },
		"accessor_position_Light_2241cd32-8ba2-48a5-9ee7-2caef7e9ed62_0_i0": {
			"bufferView": "vec3BufferView",
			"byteOffset": 334656,
			"byteStride": 12,
			"componentType": 5126,
			"count": 612,
			"max": [ 0.9528574, 1.088967, 0.2282062 ],
			"min": [ 0.6378593, 1.065474, -0.08671816 ],
			"type": "VEC3"
		 },
		"accessor_normal_Light_2241cd32-8ba2-48a5-9ee7-2caef7e9ed62_0_i0": {
			"bufferView": "vec3BufferView",
			"byteOffset": 342000,
			"byteStride": 12,
			"componentType": 5126,
			"count": 612,
			"max": [ 0.9998614, 0.02016327, 0.9998523 ],
			"min": [ -0.9999828, 0.00476048, -0.9999561 ],
			"type": "VEC3"
		 },
		"accessor_color_Light_2241cd32-8ba2-48a5-9ee7-2caef7e9ed62_0_i0": {
			"bufferView": "vec4BufferView",
			"byteOffset": 669312,
			"byteStride": 16,
			"componentType": 5126,
			"count": 612,
			"max": [ 0.2, 0.2, 0.9019608, 1 ],
			"min": [ 0.2, 0.2, 0.9019608, 1 ],
			"type": "VEC4"
		 },
		"accessor_tangent_Light_2241cd32-8ba2-48a5-9ee7-2caef7e9ed62_0_i0": {
			"bufferView": "vec4BufferView",
			"byteOffset": 679104,
			"byteStride": 16,
			"componentType": 5126,
			"count": 612,
			"max": [ 0.9998671, 0.2611047, 0.9970224, 1 ],
			"min": [ -0.9999802, -0.3320231, -0.9999083, 1 ],
			"type": "VEC4"
		 },
		"accessor_uv0_Light_2241cd32-8ba2-48a5-9ee7-2caef7e9ed62_0_i0": {
			"bufferView": "vec2BufferView",
			"byteOffset": 0,
			"byteStride": 8,
			"componentType": 5126,
			"count": 612,
			"max": [ 0.9999999, 1 ],
			"min": [ 0, 0 ],
			"type": "VEC2"
		 },
		"accessor_indices_0_Light_2241cd32-8ba2-48a5-9ee7-2caef7e9ed62_0_i0": {
			"bufferView": "ushortBufferView",
			"byteOffset": 41832,
			"byteStride": 0,
			"componentType": 5123,
			"count": 1830,
			"max": [ 611 ],
			"min": [ 0 ],
			"type": "SCALAR"
		 }
	},
	"bufferViews": {
		"ushortBufferView": {
			"buffer": "sketch",
			"byteLength": 45492,
			"byteOffset": 0,
			"target": 34963
		},
		"floatBufferView": {
			"buffer": "sketch",
			"byteLength": 55776,
			"byteOffset": 45492,
			"target": 34962
		},
		"vec2BufferView": {
			"buffer": "sketch",
			"byteLength": 4896,
			"byteOffset": 101268,
			"target": 34962
		},
		"vec3BufferView": {
			"buffer": "sketch",
			"byteLength": 349344,
			"byteOffset": 106164,
			"target": 34962
		},
		"vec4BufferView": {
			"buffer": "sketch",
			"byteLength": 688896,
			"byteOffset": 455508,
			"target": 34962
		}
	},
	"meshes": {
		"mesh_Embers_02ffb866-7fb2-4d15-b761-1012cefb1360_0_i0": {
			"name": "mesh_Embers_02ffb866-7fb2-4d15-b761-1012cefb1360_0_i0",
			"primitives": [
				{
					"attributes": {
						"POSITION": "accessor_position_Embers_02ffb866-7fb2-4d15-b761-1012cefb1360_0_i0",
						"NORMAL": "accessor_normal_Embers_02ffb866-7fb2-4d15-b761-1012cefb1360_0_i0",
						"COLOR": "accessor_color_Embers_02ffb866-7fb2-4d15-b761-1012cefb1360_0_i0",
						"VERTEXID": "accessor_vertexId_Embers_02ffb866-7fb2-4d15-b761-1012cefb1360_0_i0",
						"TEXCOORD_0": "accessor_uv0_Embers_02ffb866-7fb2-4d15-b761-1012cefb1360_0_i0",
						"TEXCOORD_1": "accessor_uv1_Embers_02ffb866-7fb2-4d15-b761-1012cefb1360_0_i0"
					},
					"indices": "accessor_indices_0_Embers_02ffb866-7fb2-4d15-b761-1012cefb1360_0_i0",
					"material": "material_02ffb866-7fb2-4d15-b761-1012cefb1360",
					"mode": 4
				}
			]
		},
		"mesh_Light_2241cd32-8ba2-48a5-9ee7-2caef7e9ed62_0_i0": {
			"name": "mesh_Light_2241cd32-8ba2-48a5-9ee7-2caef7e9ed62_0_i0",
			"primitives": [
				{
					"attributes": {
						"POSITION": "accessor_position_Light_2241cd32-8ba2-48a5-9ee7-2caef7e9ed62_0_i0",
						"NORMAL": "accessor_normal_Light_2241cd32-8ba2-48a5-9ee7-2caef7e9ed62_0_i0",
						"COLOR": "accessor_color_Light_2241cd32-8ba2-48a5-9ee7-2caef7e9ed62_0_i0",
						"TANGENT": "accessor_tangent_Light_2241cd32-8ba2-48a5-9ee7-2caef7e9ed62_0_i0",
						"TEXCOORD_0": "accessor_uv0_Light_2241cd32-8ba2-48a5-9ee7-2caef7e9ed62_0_i0"
					},
					"indices": "accessor_indices_0_Light_2241cd32-8ba2-48a5-9ee7-2caef7e9ed62_0_i0",
					"material": "material_2241cd32-8ba2-48a5-9ee7-2caef7e9ed62",
					"mode": 4
				}
			]
		}
	},
	"shaders": {
		"vertex_02ffb866-7fb2-4d15-b761-1012cefb1360": {
			"type": 35633,
			"uri": "https://www.tiltbrush.com/shaders/brushes/Embers-02ffb866-7fb2-4d15-b761-1012cefb1360/Embers-02ffb866-7fb2-4d15-b761-1012cefb1360-v10.0-vertex.glsl"
		},
		"fragment_02ffb866-7fb2-4d15-b761-1012cefb1360": {
			"type": 35632,
			"uri": "https://www.tiltbrush.com/shaders/brushes/Embers-02ffb866-7fb2-4d15-b761-1012cefb1360/Embers-02ffb866-7fb2-4d15-b761-1012cefb1360-v10.0-fragment.glsl"
		},
		"vertex_2241cd32-8ba2-48a5-9ee7-2caef7e9ed62": {
			"type": 35633,
			"uri": "https://www.tiltbrush.com/shaders/brushes/Light-2241cd32-8ba2-48a5-9ee7-2caef7e9ed62/Light-2241cd32-8ba2-48a5-9ee7-2caef7e9ed62-v10.0-vertex.glsl"
		},
		"fragment_2241cd32-8ba2-48a5-9ee7-2caef7e9ed62": {
			"type": 35632,
			"uri": "https://www.tiltbrush.com/shaders/brushes/Light-2241cd32-8ba2-48a5-9ee7-2caef7e9ed62/Light-2241cd32-8ba2-48a5-9ee7-2caef7e9ed62-v10.0-fragment.glsl"
		}
	},
	"programs": {
		"program_02ffb866-7fb2-4d15-b761-1012cefb1360": {
			"attributes": [
				"a_position",
				"a_normal",
				"a_color",
				"a_vertexId",
				"a_texcoord0",
				"a_texcoord1"				
			],
			"vertexShader": "vertex_02ffb866-7fb2-4d15-b761-1012cefb1360",
			"fragmentShader": "fragment_02ffb866-7fb2-4d15-b761-1012cefb1360"
		},
		"program_2241cd32-8ba2-48a5-9ee7-2caef7e9ed62": {
			"attributes": [
				"a_position",
				"a_normal",
				"a_color",
				"a_tangent",
				"a_texcoord0"				
			],
			"vertexShader": "vertex_2241cd32-8ba2-48a5-9ee7-2caef7e9ed62",
			"fragmentShader": "fragment_2241cd32-8ba2-48a5-9ee7-2caef7e9ed62"
		}
	},
	"techniques": {
		"technique_02ffb866-7fb2-4d15-b761-1012cefb1360": {
			"program": "program_02ffb866-7fb2-4d15-b761-1012cefb1360",
			"parameters": {
				"position": {
					"type": 35665,
					"semantic": "POSITION"
				},
				"normal": {
					"type": 35665,
					"semantic": "NORMAL"
				},
				"color": {
					"type": 35666,
					"semantic": "COLOR"
				},
				"vertexId": {
					"type": 5126
				},
				"texcoord0": {
					"type": 35666,
					"semantic": "TEXCOORD_0"
				},
				"texcoord1": {
					"type": 35666,
					"semantic": "TEXCOORD_1"
				},
				"modelViewMatrix": {
					"type": 35676,
					"semantic": "MODELVIEW"
				},
				"projectionMatrix": {
					"type": 35676,
					"semantic": "PROJECTION"
				},
				"normalMatrix": {
					"type": 35675,
					"semantic": "MODELVIEWINVERSETRANSPOSE"
				},
				"SceneLight_0_matrix": {
					"type": 35676,
					"semantic": "MODELVIEW",
					"node": "node_SceneLight_0_i1"
				},
				"SceneLight_0_color": {
					"type": 35666,
					"node": "node_SceneLight_0_i1"
				},
				"SceneLight_1_matrix": {
					"type": 35676,
					"semantic": "MODELVIEW",
					"node": "node_SceneLight_1_i2"
				},
				"SceneLight_1_color": {
					"type": 35666,
					"node": "node_SceneLight_1_i2"
				},
				"ambient_light_color": {
					"type": 35666
				},
				"ScrollRate": {
					"type": 5126
				},
				"ScrollJitterIntensity": {
					"type": 5126
				},
				"ScrollJitterFrequency": {
					"type": 5126
				},
				"SpreadRate": {
					"type": 5126
				},
				"TintColor": {
					"type": 35666
				},
				"ScrollDistance": {
					"type": 35666
				},
				"MainTex_TexelSize": {
					"type": 35666
				},
				"MainTex": {
					"type": 35678
				}				
			},
			"attributes": {
				"a_position": "position",
				"a_normal": "normal",
				"a_color": "color",
				"a_vertexId": "vertexId",
				"a_texcoord0": "texcoord0",
				"a_texcoord1": "texcoord1"				
			},
			"uniforms": {
				"u_modelViewMatrix": "modelViewMatrix",
				"u_projectionMatrix": "projectionMatrix",
				"u_normalMatrix": "normalMatrix",
				"u_SceneLight_0_matrix": "SceneLight_0_matrix",
				"u_SceneLight_0_color": "SceneLight_0_color",
				"u_SceneLight_1_matrix": "SceneLight_1_matrix",
				"u_SceneLight_1_color": "SceneLight_1_color",
				"u_ambient_light_color": "ambient_light_color",
				"u_ScrollRate": "ScrollRate",
				"u_ScrollJitterIntensity": "ScrollJitterIntensity",
				"u_ScrollJitterFrequency": "ScrollJitterFrequency",
				"u_SpreadRate": "SpreadRate",
				"u_TintColor": "TintColor",
				"u_ScrollDistance": "ScrollDistance",
				"u_MainTex_TexelSize": "MainTex_TexelSize",
				"u_MainTex": "MainTex"				
			},
			"states": {
				"enable": [
					2929,
					3042
				],
				"functions": {
					"blendFuncSeparate": [1, 1, 1, 1],
					"depthMask": [false]
				}
			}
		},
		"technique_2241cd32-8ba2-48a5-9ee7-2caef7e9ed62": {
			"program": "program_2241cd32-8ba2-48a5-9ee7-2caef7e9ed62",
			"parameters": {
				"position": {
					"type": 35665,
					"semantic": "POSITION"
				},
				"normal": {
					"type": 35665,
					"semantic": "NORMAL"
				},
				"color": {
					"type": 35666,
					"semantic": "COLOR"
				},
				"tangent": {
					"type": 35666,
					"semantic": "TANGENT"
				},
				"texcoord0": {
					"type": 35664,
					"semantic": "TEXCOORD_0"
				},
				"modelViewMatrix": {
					"type": 35676,
					"semantic": "MODELVIEW"
				},
				"projectionMatrix": {
					"type": 35676,
					"semantic": "PROJECTION"
				},
				"normalMatrix": {
					"type": 35675,
					"semantic": "MODELVIEWINVERSETRANSPOSE"
				},
				"SceneLight_0_matrix": {
					"type": 35676,
					"semantic": "MODELVIEW",
					"node": "node_SceneLight_0_i1"
				},
				"SceneLight_0_color": {
					"type": 35666,
					"node": "node_SceneLight_0_i1"
				},
				"SceneLight_1_matrix": {
					"type": 35676,
					"semantic": "MODELVIEW",
					"node": "node_SceneLight_1_i2"
				},
				"SceneLight_1_color": {
					"type": 35666,
					"node": "node_SceneLight_1_i2"
				},
				"ambient_light_color": {
					"type": 35666
				},
				"EmissionGain": {
					"type": 5126
				},
				"MainTex_TexelSize": {
					"type": 35666
				},
				"MainTex": {
					"type": 35678
				}				
			},
			"attributes": {
				"a_position": "position",
				"a_normal": "normal",
				"a_color": "color",
				"a_tangent": "tangent",
				"a_texcoord0": "texcoord0"				
			},
			"uniforms": {
				"u_modelViewMatrix": "modelViewMatrix",
				"u_projectionMatrix": "projectionMatrix",
				"u_normalMatrix": "normalMatrix",
				"u_SceneLight_0_matrix": "SceneLight_0_matrix",
				"u_SceneLight_0_color": "SceneLight_0_color",
				"u_SceneLight_1_matrix": "SceneLight_1_matrix",
				"u_SceneLight_1_color": "SceneLight_1_color",
				"u_ambient_light_color": "ambient_light_color",
				"u_EmissionGain": "EmissionGain",
				"u_MainTex_TexelSize": "MainTex_TexelSize",
				"u_MainTex": "MainTex"				
			},
			"states": {
				"enable": [
					2929,
					3042
				],
				"functions": {
					"blendFuncSeparate": [1, 1, 1, 1],
					"depthMask": [false]
				}
			}
		}
	},
	"samplers": {
		"sampler_LINEAR_LINEAR_REPEAT": {
			"magFilter": 9729,
			"minFilter": 9987,
			"wrapS": 10497,
			"wrapT": 10497
		}
	},
	"textures": {
		"texture_02ffb866-7fb2-4d15-b761-1012cefb1360_MainTex": {
			"format": 6408,
			"internalFormat": 6408,
			"sampler": "sampler_LINEAR_LINEAR_REPEAT",
			"source": "image_02ffb866-7fb2-4d15-b761-1012cefb1360_MainTex",
			"target": 3553,
			"type": 5121
		},
		"texture_2241cd32-8ba2-48a5-9ee7-2caef7e9ed62_MainTex": {
			"format": 6408,
			"internalFormat": 6408,
			"sampler": "sampler_LINEAR_LINEAR_REPEAT",
			"source": "image_2241cd32-8ba2-48a5-9ee7-2caef7e9ed62_MainTex",
			"target": 3553,
			"type": 5121
		}
	},
	"images": {
		"image_02ffb866-7fb2-4d15-b761-1012cefb1360_MainTex": {
			"uri": "https://www.tiltbrush.com/shaders/brushes/Embers-02ffb866-7fb2-4d15-b761-1012cefb1360/Embers-02ffb866-7fb2-4d15-b761-1012cefb1360-v10.0-MainTex.png"
		},
		"image_2241cd32-8ba2-48a5-9ee7-2caef7e9ed62_MainTex": {
			"uri": "https://www.tiltbrush.com/shaders/brushes/Light-2241cd32-8ba2-48a5-9ee7-2caef7e9ed62/Light-2241cd32-8ba2-48a5-9ee7-2caef7e9ed62-v10.0-MainTex.png"
		}
	},
	"materials": {
		"material_02ffb866-7fb2-4d15-b761-1012cefb1360": {
			"technique": "technique_02ffb866-7fb2-4d15-b761-1012cefb1360",
			"values": {
				"SceneLight_0_color": [0.7780392, 0.8156863, 0.9913726, 1],
				"SceneLight_1_color": [0.4282353, 0.4211765, 0.3458824, 1],
				"ambient_light_color": [0.3921569, 0.3921569, 0.3921569, 1],
				"ScrollRate": 0.6,
				"ScrollJitterIntensity": 0.03,
				"ScrollJitterFrequency": 5,
				"SpreadRate": 1.539,
				"TintColor": [1, 1, 1, 1],
				"ScrollDistance": [0.2, 0.6, 0, 0],
				"MainTex_TexelSize": [0.0078125, 0.0078125, 128, 128],
				"MainTex": "texture_02ffb866-7fb2-4d15-b761-1012cefb1360_MainTex"				
			},
			"name": "material_02ffb866-7fb2-4d15-b761-1012cefb1360"
		},
		"material_2241cd32-8ba2-48a5-9ee7-2caef7e9ed62": {
			"technique": "technique_2241cd32-8ba2-48a5-9ee7-2caef7e9ed62",
			"values": {
				"SceneLight_0_color": [0.7780392, 0.8156863, 0.9913726, 1],
				"SceneLight_1_color": [0.4282353, 0.4211765, 0.3458824, 1],
				"ambient_light_color": [0.3921569, 0.3921569, 0.3921569, 1],
				"EmissionGain": 0.45,
				"MainTex_TexelSize": [0.001953125, 0.00390625, 512, 256],
				"MainTex": "texture_2241cd32-8ba2-48a5-9ee7-2caef7e9ed62_MainTex"				
			},
			"name": "material_2241cd32-8ba2-48a5-9ee7-2caef7e9ed62"
		}
	},
	"nodes": {
		"node_Embers_02ffb866-7fb2-4d15-b761-1012cefb1360_0_i0": {
			"name": "node_Embers_02ffb866-7fb2-4d15-b761-1012cefb1360_0_i0",
			"meshes": [
				"mesh_Embers_02ffb866-7fb2-4d15-b761-1012cefb1360_0_i0"
			],
			"matrix": [1, 0, 0, 0, 0, 1, 0, 0, 0, 0, 1, 0, 0, 0, 0, 1]
		},
		"node_SceneLight_0_i1": {
			"name": "node_SceneLight_0_i1",
			"light": "SceneLight_0",
			"matrix": [0.898794, 0.2191856, -0.3796406, 0, -0.4383712, 0.449397, -0.7783785, 0, -1.490116E-08, 0.8660254, 0.4999999, 0, 0.6036035, 1.071628, 0.3542564, 1]
		},
		"node_SceneLight_1_i2": {
			"name": "node_SceneLight_1_i2",
			"light": "SceneLight_1",
			"matrix": [0.7660446, -0.4924039, -0.4131757, 0, -0.6427875, -0.5868244, -0.4924039, 0, 2.980232E-08, 0.6427875, -0.7660447, 0, 0.6036035, 1.066969, 0.3278297, 1]
		},
		"node_Light_2241cd32-8ba2-48a5-9ee7-2caef7e9ed62_0_i0": {
			"name": "node_Light_2241cd32-8ba2-48a5-9ee7-2caef7e9ed62_0_i0",
			"meshes": [
				"mesh_Light_2241cd32-8ba2-48a5-9ee7-2caef7e9ed62_0_i0"
			],
			"matrix": [1, 0, 0, 0, 0, 1, 0, 0, 0, 0, 1, 0, 0, 0, 0, 1]
		}
	},
	"scene": "defaultScene",
	"scenes": {
		"defaultScene": {
			"nodes": [
				"node_Embers_02ffb866-7fb2-4d15-b761-1012cefb1360_0_i0",
				"node_SceneLight_0_i1",
				"node_SceneLight_1_i2",
				"node_Light_2241cd32-8ba2-48a5-9ee7-2caef7e9ed62_0_i0"
			],
			"extras": {
				"TB_EnvironmentGuid": "580b4529-ac50-4fe9-b8d2-635765a14893",
				"TB_Environment": "Black",
				"TB_UseGradient": "true",
				"TB_SkyColorA": "0, 0, 0",
				"TB_SkyColorB": "0, 0, 0",
				"TB_SkyGradientDirection": "0, 1, 0",
				"TB_FogColor": "0.01960784, 0.01960784, 0.01960784",
				"TB_FogDensity": "0",
				"TB_SkyColorHorizon": "0, 0, 0",
				"TB_SkyColorZenith": "0, 0, 0"
			}
		}
	}
}